<?xml version="1.0" encoding="utf-8"?>

<svg version="1.1" id="Слой_1" xmlns="http://www.w3.org/2000/svg" xmlns:xlink="http://www.w3.org/1999/xlink" x="0px" y="0px"
	 viewBox="0 0 1024 1024" style="enable-background:new 0 0 1024 1024;" xml:space="preserve">
<style type="text/css">
	.st0{fill:#446933;}
	.st1{fill:#61C38D;}
	.st2{opacity:0.32;fill:#0F0F11;}
	.st3{fill:#0F0F11;}
	.st4{fill:#865D28;}
	.st5{fill:#DDD7C3;}
	.st6{fill:#AAA088;}
	.st7{fill:#EEA38C;}
	.st8{fill:#C98574;}
	.st9{fill:#189CB9;}
	.st10{fill:#FFFFFF;}
	.st11{opacity:0.28;fill:#0F0F11;}
</style>
<g>
	<path class="st0" d="M978.4,709.9c-7.4,22.5-14.1,40.6-18.1,48.4c-10.5,20.9-84.7,87-129.1,124c-0.1,0-0.1,0.1-0.1,0.1
		c-14.3,11.8-25.4,20.7-30.5,24c-1.3,0.9-3.8,2.1-7.2,3.7c-11.7,5.3-34.6,14.1-62.8,24.3c-33.1,12-73.3,26.1-110.7,39.1
		c-62.4,21.7-116.9,40.1-116.9,40.1s-88.9-15.6-144.2-24.2h-0.1c-20.9-3.2-37-5.4-41.7-5.4c-10.1,0-57.1-33.3-94.2-60.8
		c-11.5-8.5-22-16.5-30.2-22.7c-10.3-7.9-16.9-12.9-16.9-12.9s-31.5-31.5-62-61.8c-16.4-16.4-32.7-32.5-43.4-43.2
		c-3.3-3.3-9.3-15-16.4-31.6C33.8,704,4.9,619,3.6,580.6c-1.8-52,78-182.1,78-182.1l93.1,1.5h0.1l648.8,10.5l120.7,2
		c0,0,67,116.8,72.7,139.2C1021.1,567.8,997.3,652.9,978.4,709.9z"/>
	<path class="st1" d="M295.7,622.7C293,627.8,186.6,726.4,183,753.8c-2.2,16.7,21.8,103.3,39.9,169.2c-26-19.3-47.1-35.6-47.1-35.6
		s-31.5-31.5-62-61.8l-0.5-14c0,0-11.3-61-12.4-76.5c-1-15.5,36.9-62.5,36.9-62.5L295.7,622.7z"/>
	<path class="st1" d="M620,973.4c-62.4,21.7-116.9,40.1-116.9,40.1s-88.9-15.6-144.2-24.2h-0.1c-14-60.7-37-162.6-37-177.7
		c0-21.6,42.5-152.2,47.7-153.6L495.2,544l107,128.5c0,0,20.9,118.2,31.3,164.7C640.3,867.2,629,931.3,620,973.4z"/>
	<path class="st1" d="M884.6,651.8c0,0-2.7,113-12,133.5c-4.6,10.3-23.5,54.8-41.3,96.9c-0.1,0-0.1,0.1-0.1,0.1
		c-14.3,11.8-25.4,20.7-30.5,24c-6,3.9-33.7,14.7-70,28c27.7-58.1,67.9-146,65.7-164c-3.3-27.4-96.6-135.6-96.6-135.6l39.6-73.1
		L884.6,651.8z"/>
	<path class="st2" d="M263.2,631.1c0,0-107.8,112.5-107.1,130.4c0.4,10.6,21,82.2,36.5,138.7c-10.3-7.9-16.9-12.9-16.9-12.9
		s-31.5-31.5-62-61.8c-16.4-16.4-32.7-32.5-43.4-43.2c-12.9-12.7-65-149.8-66.8-201.8c-1.8-52,78-182.1,78-182.1l93.1,1.5h0.1
		l83.1,34.4L308.6,544L263.2,631.1z"/>
	<path class="st2" d="M960.3,758.2c-10.5,20.9-84.7,87-129.1,124c-0.1,0-0.1,0.1-0.1,0.1c-14.3,11.8-25.4,20.7-30.5,24
		c-1.3,0.9-3.8,2.1-7.2,3.7c23.5-57.8,55.2-137.8,56.2-150c1.4-19.4-92.1-130.7-92.1-130.7l-26-142.5l92.1-76.2l120.7,2
		c0,0,67,116.8,72.7,139.2C1022.8,574.1,974.2,730.7,960.3,758.2z"/>
	<path class="st3" d="M81.9,399.1c-22.4,40.3-44.7,82.2-61.1,125.6C12.9,546.4,5,568.8,8.7,591.1c7.7,45.6,24,90,40.4,133.2
		c7.6,18.1,14.2,37.2,25.1,53.5c34.1,34.3,73.6,72.2,105.4,104.5c41.4,31.6,82.6,64.2,127,91.4c4.7,2.5,8.6,5,13.5,5
		c54.3,7.3,128.9,21.8,183.4,31.7c64-22.5,144.3-47.9,212.9-73.7c17.7-6.5,35.5-13,53-19.9c13.1-5.5,26.3-9.4,37.1-18.6
		c50.3-41.9,101.3-84.8,143.9-134.6c8.5-10.8,11.5-24.3,16.5-37.2c17.3-53,34.8-107.7,43.4-162.7c0,0,0.5-6.5,0.5-6.5
		c-0.1-5.9-3.1-11.3-5.7-17.3c-20.3-42.3-44-83.1-67.3-124c0,0,6.2,3.6,6.2,3.6c-103.2-1.3-218.2-3.7-322.1-5.6
		C466.9,410.4,237.5,404.3,81.9,399.1L81.9,399.1z M81.3,397.8c168.4,0.3,371,0.5,538.2,2.5c104.9,1.9,220.5,2.5,324.8,5
		c2.6,0,5,1.5,6.2,3.6c25,46.1,52.8,90.8,72.4,139.7c0.9,2.5,0.8,6,1.1,8.9c-1.6,22-7.5,43.2-12.8,63.9
		c-14.2,47.9-26.4,96.9-48.3,142.1c-15.4,21.6-36,38.8-55.1,56.9c-35.8,31-70.3,64.3-110,90.4C744.2,934.5,562,995.1,504,1016.2
		c-54.8-7.9-130.1-21.3-184.5-27.1c-6.6,0.1-12.9-3.1-18-5.9c-20.1-11-38.6-24.1-57.1-37.2c-24.7-17.7-49-35.7-73-54.3
		c-36.2-36.8-74.1-72.2-108.8-110.4c-20.3-38-33.7-79-46.4-120C7.5,627.6-6.1,591.2,3.1,555.9C19.8,498.9,50.1,448.2,81.3,397.8
		L81.3,397.8z"/>
	<g>
		<path class="st4" d="M717.4,296.3c0,0,30.5-124,99.8-95.6c47.7,19.5,66.7-23.2,40.5-40.8c12.3-14.7,19.2-19.4,35.4-7.6
			c-28.8-36.9-34.4-62-43.5-80.4C840.5,53.6,806,55.5,770,92.6c-15.9-38.7,21.4-75.9,33.2-77s140,18.4,167,125.1
			c27.1-12.5,40.6,20.2,40.6,20.2s-37.9,27.8-36,91.3c2.3,78.3-97.3,171.8-218.6,121C671.6,313.6,717.4,296.3,717.4,296.3z"/>
		<path class="st4" d="M315.5,296.3c0,0-30.5-124-99.8-95.6C168,220.2,149,177.6,175.2,160c-12.3-14.7-19.2-19.4-35.4-7.6
			c28.8-36.9,34.4-62,43.5-80.4s43.6-16.5,79.6,20.6c15.9-38.7-21.4-75.9-33.2-77c-11.8-1-140,18.4-167,125.1
			C35.5,128.3,22,161,22,161s37.9,27.8,36,91.3c-2.3,78.3,97.3,171.8,218.6,121C361.2,313.6,315.5,296.3,315.5,296.3z"/>
		<path class="st3" d="M717,296c9.9-38,26.4-86.8,67.4-101.2c20.7-7.9,40.8,9.3,60.9,6.3c9-1.2,17-7.2,19.1-15.4
			c3-11.1-4.6-19.2-13.3-24.9c8-10.1,19.9-25,34.6-18.1c3.9,1.6,7.1,3.7,10.2,5.9l-6.4,6.6c-19.8-23.8-32.2-54.3-43.4-82.2
			c-17.9-24.6-59.1,5-74.5,21.1c0,0-2.2,2.2-2.2,2.2l-1.1-2.9c-11.5-28.8,5-63.3,30.8-78.2c3.4-1.7,7.4-1.4,10.5-1
			c19.8,2.2,38.9,7.9,57.5,14.8c49.5,18.8,94.8,57.4,107.8,110.7c0,0-6.4-3-6.4-3c21.2-10.8,41.3,6.1,48.7,25.8
			c-26,20.1-37.2,54.9-36.5,87.1c-0.3,8.1-0.3,17.6-2.3,25.7c-14.8,72.2-90.2,122.3-162.2,116.1c-21.1-1.3-42-7.4-61.4-15.6
			C735.2,361.6,678.2,316.7,717,296L717,296z M717.8,296.7c-36.7,21.9,23.9,62.1,39.7,73.8c76.2,32.2,168.9,2,203.1-74.9
			c6.1-14.7,9-29.9,8.8-45.9c-0.3-33.9,11.1-69.5,38.6-92.7l-1.7,5.9c-5.4-13.2-19.5-25.4-34.1-18c0,0-4.9,1.8-4.9,1.8l-1.5-4.8
			C950.4,77.6,890.1,35.5,828.2,21.2c-8.9-1.5-19.2-5.4-27.8-2.8c-24.4,13.6-39.6,46.8-28.4,73.5c0,0-3.3-0.6-3.3-0.6
			c11-11.1,22.9-21.6,37.6-28.2c14.4-6.7,36.2-10,46.1,6.4c4,7.3,6.7,14.4,9.8,21.4c9,21,20.4,40.7,34.7,58.6
			c0,0,19.4,24.7,19.4,24.7L890.3,156c-4.5-3.1-10.1-6.9-15.3-5.2c-4.5,1.5-9.4,6.9-13.8,12.1l-1-6.8c10.1,6.8,16.2,19.8,12.6,31.8
			c-7.5,25.6-39.3,24.9-58.6,15.9C760.2,184,731.5,256,717.8,296.7L717.8,296.7z"/>
		<path class="st3" d="M315.1,296.7c-13.6-40.5-42.5-112.7-96.5-92.8c-19.2,9-51.1,9.6-58.6-15.9c-3.6-12,2.5-25.1,12.6-31.8
			c0,0-1,6.8-1,6.8c-4.4-5.1-9.3-10.6-13.8-12.1c-5.2-1.7-10.8,2.1-15.3,5.2c0,0-25.8,18.1-25.8,18.1l19.4-24.7
			c14.3-17.9,25.7-37.6,34.7-58.6c3.1-7,5.8-14.2,9.8-21.4c9.9-16.4,31.7-13.1,46.1-6.4c14.7,6.6,26.6,17.1,37.6,28.2l-3.3,0.6
			c11.2-26.6-4-59.8-28.4-73.5c-8.7-2.6-19,1.4-27.8,2.8c-62,14.3-122.3,56.4-137.6,120.7c0,0-1.5,4.8-1.5,4.8l-4.9-1.8
			c-14.6-7.4-28.7,4.7-34.1,18c0,0-1.7-5.9-1.7-5.9c27.6,23.2,38.9,58.7,38.6,92.7c-0.2,16,2.7,31.2,8.8,45.9
			c34.1,77,126.9,107.2,203.1,74.9C291.2,358.8,351.8,318.5,315.1,296.7L315.1,296.7z M315.9,296c38.8,20.9-18.5,65.7-37.8,80
			c-19.4,7.8-40,14.2-61.1,15.3c-72,6.2-147.4-43.9-162.2-116.1c-2-8.1-2.1-17.6-2.3-25.7c0.7-32.2-10.5-67-36.5-87.1
			c7.4-19.8,27.4-36.7,48.7-25.8c0,0-6.4,3-6.4,3C71.2,86.4,116.5,47.8,166,29c18.6-6.9,37.7-12.5,57.5-14.8c3.1-0.4,7.1-0.7,10.5,1
			c25.8,14.9,42.3,49.4,30.8,78.2c0,0-1.1,2.9-1.1,2.9l-2.2-2.2c-15.4-16.2-56.7-45.6-74.5-21.1c-11.3,27.9-23.6,58.4-43.4,82.2
			c0,0-6.4-6.6-6.4-6.6c3.1-2.2,6.3-4.3,10.2-5.9c14.7-6.9,26.6,8,34.6,18.1c-8.7,5.7-16.3,13.8-13.3,24.9
			c2.1,8.2,10.1,14.3,19.1,15.4c20.1,3,40.2-14.1,60.9-6.3C289.5,209.2,305.9,257.9,315.9,296L315.9,296z"/>
		<g>
			<path class="st5" d="M924.2,480.8c-16,9-34.1,14.8-54.3,16.9c-94.2,10-73.6-104.2-52.6-118.9c0,0,47.1-55.9,115.8-81.9
				c23.4-8.9,49.3-14.3,76.7-12.7C1013.3,372.7,983.1,447.9,924.2,480.8z"/>
			<path class="st6" d="M904.8,421.2l19.4,59.5c-16,9-34.1,14.8-54.3,16.9c-94.2,10-73.6-104.2-52.6-118.9c0,0,47.1-55.9,115.8-81.9
				c-18.6,25.2-36.9,50.3-37.7,52.4C893.7,353.5,904.8,421.2,904.8,421.2z"/>
			<path class="st7" d="M919.6,466.4c-18.7,10.6-42,17.8-70.8,19.3c-35.6-13.5-32.2-41.7-8.4-46.1c0,0,82.5,7.1,43.9-61.2
				c28.1-27.3,52.8-45.3,71.9-56.9c0.1-0.1,0.1-0.1,0.1-0.1c25.5-15.5,41-19.7,41-19.7S1002.9,418.8,919.6,466.4z"/>
			<path class="st8" d="M919.6,466.4c-18.7,10.6-42,17.8-70.8,19.3c-35.6-13.5-32.2-41.7-8.4-46.1c0,0,82.5,7.1,43.9-61.2
				c28.1-27.3,52.8-45.3,71.9-56.9C952.9,324.1,890.1,378.6,919.6,466.4z"/>
			<path class="st3" d="M817.2,378.6c37-40.9,82.9-76.9,137.2-90.7c18.5-4.8,37.7-5.8,56.6-5l0,1.2c0.8,56.3-8.3,115.9-43.2,161.9
				c-31.8,47.8-144.9,89.3-166.6,13.6c-4.8-18.6-3.1-38.3,2.2-56.5C806.3,394.3,809.8,384.7,817.2,378.6L817.2,378.6z M817.5,379
				c-13.4,13.2-16.1,34.2-16.8,52.2c-1.3,100,124,66.8,163.7,12.1c35.5-44.3,47.1-103.3,44.1-159.1c0,0,1.2,1.2,1.2,1.2
				c-18.3-0.1-36.6,1.7-54.2,6.7C902.7,307.3,854.6,338.5,817.5,379L817.5,379z"/>
			<path class="st3" d="M840.4,439.3c44.5,0.9,67-19.4,41-61.4c4.6-4.4,9.1-8.8,13.8-13.1c30.1-26.6,63.8-50.4,101.9-64
				c0,0,1.1-0.3,1.1-0.3l0,1.1c1.6,65.3-21.1,140.7-84.3,170.8c-20.5,10-43.4,14.7-65.8,15.2c-10.7-4.5-21.9-11.4-25.9-23
				C817.6,452.2,828.4,440.3,840.4,439.3L840.4,439.3z M840.4,439.8c-11,1.8-20.5,12.7-15.8,23.8c4.1,10.5,14.9,16.3,24.9,20.1
				c17.4-1.6,43.8-6.6,62-16.2c60.4-29.9,85.2-102,84.9-165.9c0,0,1.1,0.8,1.1,0.8c-10.8,3.2-21.1,8.6-31.1,14.1
				c-29.7,17.1-55.7,39.9-80.6,63.4c0,0,0.4-2.8,0.4-2.8C912,421.2,886.3,444.3,840.4,439.8L840.4,439.8z"/>
			<path class="st3" d="M849.6,454.2c0,0,50.6,9.2,84.9-84.8C924.9,407.7,887,472.2,849.6,454.2z"/>
			<path class="st3" d="M858.6,464.3c0,0,59.8-3.7,85.7-74.7C926.4,435.9,889.5,483.4,858.6,464.3z"/>
		</g>
		<g>
			<path class="st5" d="M90.5,480.8c16,9,34.1,14.8,54.3,16.9c94.2,10,73.6-104.2,52.6-118.9c0,0-47.1-55.9-115.8-81.9
				c-23.4-8.9-49.3-14.3-76.7-12.7C1.3,372.7,31.6,447.9,90.5,480.8z"/>
			<path class="st6" d="M109.9,421.2l-19.4,59.5c16,9,34.1,14.8,54.3,16.9c94.2,10,73.6-104.2,52.6-118.9c0,0-47.1-55.9-115.8-81.9
				c18.6,25.2,36.9,50.3,37.7,52.4C121,353.5,109.9,421.2,109.9,421.2z"/>
			<path class="st7" d="M95.1,466.4c18.7,10.6,42,17.8,70.8,19.3c35.6-13.5,32.2-41.7,8.4-46.1c0,0-82.5,7.1-43.9-61.2
				C102.3,351,77.7,333,58.6,321.4c-0.1-0.1-0.1-0.1-0.1-0.1c-25.5-15.5-41-19.7-41-19.7S11.7,418.8,95.1,466.4z"/>
			<path class="st8" d="M95.1,466.4c18.7,10.6,42,17.8,70.8,19.3c35.6-13.5,32.2-41.7,8.4-46.1c0,0-82.5,7.1-43.9-61.2
				C102.3,351,77.7,333,58.6,321.4C61.8,324.1,124.6,378.6,95.1,466.4z"/>
			<path class="st3" d="M197.2,379c-37.1-40.5-85.2-71.7-138-86.8c-17.6-5-35.9-6.8-54.2-6.7l1.2-1.2C3.2,340,14.8,399,50.3,443.3
				C90,498,215.3,531.1,214,431.2C213.3,413.2,210.6,392.2,197.2,379L197.2,379z M197.5,378.6c7.4,6.1,10.8,15.7,13.7,24.5
				c5.3,18.2,7.1,37.9,2.2,56.5C191.7,535.3,78.6,493.8,46.9,446C12,400,2.9,340.4,3.7,284.1c0,0,0-1.2,0-1.2
				c18.9-0.8,38.1,0.2,56.6,5C114.6,301.7,160.5,337.7,197.5,378.6L197.5,378.6z"/>
			<path class="st3" d="M174.3,439.8c-46,4.4-71.5-18.7-45.8-62.6c0,0,0.4,2.8,0.4,2.8C104,356.5,78,333.7,48.3,316.5
				c-10-5.5-20.2-10.9-31.1-14.1l1.1-0.8c-0.3,63.8,24.6,136,84.9,165.9c18.2,9.6,44.6,14.7,62,16.2c10-3.8,20.8-9.6,24.9-20.1
				C194.7,452.5,185.3,441.6,174.3,439.8L174.3,439.8z M174.3,439.3c12,1,22.9,13,18.2,25.2c-4,11.7-15.2,18.5-25.9,23
				c-22.4-0.4-45.3-5.2-65.8-15.2C37.7,442.2,15,366.9,16.6,301.6c0,0,0-1.1,0-1.1l1.1,0.3c38.1,13.6,71.7,37.4,101.9,64
				c4.7,4.3,9.2,8.7,13.8,13.1C107.2,420,129.9,440.2,174.3,439.3L174.3,439.3z"/>
			<path class="st3" d="M165.1,454.2c0,0-50.6,9.2-84.9-84.8C89.8,407.7,127.7,472.2,165.1,454.2z"/>
			<path class="st3" d="M156.1,464.3c0,0-59.8-3.7-85.7-74.7C88.3,435.9,125.2,483.4,156.1,464.3z"/>
		</g>
		<g>
			<path class="st0" d="M960.3,634.6c-17.1,13.8-45.4,33.7-66.6,34c21.6,18.6,31.2,28.1,31.2,28.1s-113.4,9.5-122.7,7.7
				c-9.3-1.7-72.2-69.9-72.2-69.9l-466.8-3.5c0,0-72.9,68-81.2,72.9c-15.6,1.2-76.8,0-76.8,0l13.1-28.8c0,0-45.7-28.5-64.1-52.5
				c-1.1-1.5-2.2-3-3.1-4.4c36-6.7,75.6-34.3,75.6-34.3s45.6-345.7,48-376.9c2.4-31.2,147.9-129.7,336.2-124.9
				C699.3,87,848.2,215.4,868.5,243c12,62.4-9.6,277.4,22.8,340.9c25.2,32.4,84,37.7,84,37.7S969.5,627.3,960.3,634.6z"/>
			<path class="st2" d="M893.8,668.6c21.6,18.6,31.2,28.1,31.2,28.1s-113.4,9.5-122.7,7.7c-9.3-1.7-72.2-69.9-72.2-69.9l-466.8-3.5
				c0,0-72.9,68-81.2,72.9c-15.6,1.2-76.8,0-76.8,0l13.1-28.8c0,0-45.7-28.5-64.1-52.5l42.6,3.4l55.3-34.2l24.5-56.7l-14.4-15.9
				l35.6-92.5l8-197.4c0,0,79.6-74.6,233.1-79.2c153.5-4.6,296.7,39.4,341.4,86.6c44.1,66.7,25.8,230.4,25.8,230.4l7.4,76.8
				l34.4,47.7l-7.3,14.7L897,630l63.3,4.6C943.2,648.4,914.9,668.3,893.8,668.6z"/>
			<path class="st3" d="M263.4,631.6c-25.5,23.9-53.3,52.1-80.4,74.1c-23.4,2.2-54.3,0.9-77.9,1.1c-2,0-3.5-2.2-2.5-4
				c0,0,13-28.9,13-28.9l1.2,3.9c-25-16.5-50.9-32.9-68.8-57.5c-1.5-2.2-0.1-5.4,2.5-5.8c13.2-2.7,26-7.6,38.3-13.5
				c12.3-5.9,24.4-12.8,35.6-20.4l-1.8,2.9c9.1-69.7,40.4-314.8,49.1-380.4c23.8-47.3,117-83.7,165.8-98.8
				C479,60,628.4,78.7,756.3,152.8c26,14.8,51.6,31.8,75.2,50.4c13.9,12,30.3,23.7,40.8,39c12.4,100.9-4.1,209.8,14.4,310
				c2.2,9.7,5.5,20.4,9.5,29.2c15.6,19.4,52.1,31.8,79.9,34.6c3,0.3,5.3,3.1,4.9,6.1c-0.2,1.4-0.8,2.6-1.8,3.5
				c-6.1,5.6-12.2,10.7-18.7,15.8c-19.9,14.8-40.8,30.6-66.7,32.6c0,0,3.5-9.6,3.5-9.6l31.5,28.5c3.5,3,1.3,9.3-3.4,9.2
				c-38.2,2.5-85.5,7.8-123.3,7.6c-1.4,0-3.9-1.3-5.2-2c-12.1-8.6-21.4-19-31.7-29.2c-13.1-13.4-25.9-27-38.5-40.8l3.4,1.5
				C597.7,637.1,394.2,634.6,263.4,631.6L263.4,631.6z M263,630.6c130.2-0.8,335.3-0.7,467-0.6c1.3,0,2.5,0.6,3.4,1.5
				c22.7,22.9,44.3,48.9,70.3,67.8c36.4-0.1,84.1-5.5,120.9-8c0,0-3.4,9.2-3.4,9.2l-30.9-27.8c-3.9-3.1-1.3-9.6,3.5-9.6
				c30-3.6,55.5-26.4,77.9-45.5c0,0,3.3,9.6,3.3,9.6c-32.3-4.4-67.2-14.2-88.3-40.8c-4.4-10.1-7.9-21.3-10.2-31.9
				c-12.9-74.5-8.1-150.7-8.1-225.8c0-28.5,0.6-57.3-3.4-84.9l0.7,1.5c-6.9-9-16-17.1-24.7-25.1c-6.7-5.9-20.6-17.2-27.7-22.6
				C674.4,92.4,506.3,54.2,338.8,108.3c-55.6,19-113.4,43-153.8,86.5c-8.7,9.4-6.6,20.8-8.4,32.1c-2.6,23.9-5.4,47.8-8.4,71.6
				c-11.6,95.5-24.5,190.7-37.4,286c-0.2,1.2-0.8,2.2-1.7,2.8c-23.9,15.5-49.1,29-77.3,34.6c0,0,2.5-5.8,2.5-5.8
				c7.8,11.8,19.1,21.6,30.1,30.6c11.4,9.2,23.4,17.8,35.6,25.8c1.3,0.8,1.8,2.5,1.1,3.9l-13.4,28.7l-2.5-4
				c21.6,0.7,58,1.1,75.8,1.1C204.9,684,239.9,650.8,263,630.6L263,630.6z"/>
			<g>
				<path class="st5" d="M801.6,473.5c-0.7,13.1-2.1,25.2-4.3,36.1c-8.2,6.5-15.3,13.6-21.6,21c-30.6,35.8-41.7,80.3-44.6,114.8
					c0,0.2-0.1,0.4-0.1,0.6c-1.5,18-0.9,33.2,0.4,42.9c-2,6.2-82.4,49.5-137.3,41.3c6-45.3-80.2-91.7-80.2-91.7s-0.8,0.6-2.9,1.1
					c-4.8,1.4-17.1,2.9-44.6-2.2c-9.4,3.6-18,7.1-25.7,10.7c-58.8,26.8-69.2,51.7-70.2,70.8c-6.2,2-89.6-14.5-109.6-44.3
					c1.7-14.3,2.4-27.6,2.4-39.8c0-1.2,0-2.3-0.1-3.5c-0.7-56.9-17.7-93.1-32-114.6c-9.6-14.5-18-22.4-19.3-25.5
					c-1.1-2.9-2.1-8.2-2.8-15.5v-0.1c-5.2-50.5-0.1-192.9,16.2-223.1c56.2-39.6,113.6-62.8,169.2-74.8
					c73.2-15.7,142.9-11.8,201.4,0.1c7.7,1.5,15.3,3.3,22.6,5.1c72.2,18,123.8,47.2,137.7,61.8C785.5,275.7,806.3,391.9,801.6,473.5
					z"/>
				<path class="st6" d="M389.3,448l-30.7,7.5l11.9,6.7l-48.8,6.2L279.1,442l-46,15.2l-24,18.3c-5.2-50.5-0.1-192.9,16.2-223.1
					c56.2-39.6,113.6-62.8,169.2-74.8V190l-142.8,68.4l47.7,118.2L427,411.1L389.3,448z"/>
				<path class="st6" d="M801.6,473.5l-93.8-61.6l-10.1,32.4l-40.6,27.8l-40.8-3.5l12-6.7l-36.1-6l4.9-18.8l94.7-85.5l51.1-90.6
					L600.3,186l18.2-3.2c72.2,18,123.8,47.2,137.7,61.8C785.5,275.7,806.3,391.9,801.6,473.5z"/>
				<path class="st6" d="M299.5,586.4l17.3,11.8c0,0,81.8-26.8,84-26.8c2.2,0,68.3,32.5,68.3,32.5L403.5,544L299.5,586.4z"/>
				<polygon class="st6" points="682.8,606.4 654.8,606.4 583.9,577.2 520.4,601.4 592.2,561.5 				"/>
				<path class="st6" d="M440.7,648c-58.8,26.8-69.2,51.7-70.2,70.8c-6.2,2-89.6-14.5-109.6-44.3c1.7-14.3,2.4-27.6,2.4-39.8
					c0-1.2,0-2.3-0.1-3.5l2.3-2l30.2,44.2l52.8,21.2l78.5-76.3L440.7,648z"/>
				<path class="st6" d="M731.3,688.9c-2,6.2-82.4,49.5-137.3,41.3c6-45.3-80.2-91.7-80.2-91.7s-0.8,0.6-2.9,1.1
					c16-10.1,37.9-10.3,37.9-10.3l63,62.5l71.4-13.4c0,0,27.6-19,47.7-32.3C729.4,664,730,679.2,731.3,688.9z"/>
				<path class="st9" d="M329.8,472.4l-66.5,162.2c-0.1-59-17.5-96.1-32.1-118.1l47.9-74.5L329.8,472.4z"/>
				<path class="st9" d="M775.6,530.6c-30.6,35.8-41.7,80.3-44.6,114.8l-69-174.8l35.7-26.2l10.1-32.4L775.6,530.6z"/>
				<path class="st9" d="M595.8,177.7L569,311.3l-73.1,48.6L427,306.7l-32.6-129.2C467.6,161.8,537.3,165.8,595.8,177.7z"/>
				<path class="st3" d="M329.9,472.3c-20,53.2-43.8,110.4-66.1,162.5c0,0-1,2.5-1,2.5l0-2.7c-0.2-41.4-10.2-83.6-33.7-118
					c0,0,0.6-1,0.6-1c16.1-25.3,32.4-50.4,49-75.3C296,450.9,313.3,461.7,329.9,472.3L329.9,472.3z M329.6,472.4
					c-17.5-9.9-34.4-19.5-51.2-29.3l1.8-0.4c-15.5,25.1-31.5,50-47.5,74.7l0-1.9c23.3,35,31.3,77.6,31.2,119.1c0,0-1.1-0.2-1.1-0.2
					c11-27,21-54.1,32.2-80.9C303.4,533.2,320.8,492.5,329.6,472.4L329.6,472.4z"/>
				<path class="st3" d="M775.8,530.6c-27.7,34.4-40.6,77.7-43.9,121.1c0,0-2.3-5.8-2.3-5.8c-18.9-50.9-48-123.8-69.1-174.8
					c0,0-0.4-1.1-0.4-1.1l1-0.7l35.5-26.4l-0.7,0.9l10-32.4l1.2-4C730.6,448.1,753.4,489.6,775.8,530.6L775.8,530.6z M775.4,530.6
					c-23.5-39.3-46.6-78.2-69.3-117.7c0,0,3.3-0.4,3.3-0.4l-10.1,32.4c-0.2,0.6-0.2,0.6-0.7,0.9l-35.9,26l0.5-1.8
					c19.6,51.8,47.8,124.5,69,174.8c0,0-2.9,0.4-2.9,0.4C732.9,603.8,747.4,561.7,775.4,530.6L775.4,530.6z"/>
				<path class="st3" d="M596,177.6c-8.1,44.6-16.8,89.9-25.6,134.6c-24.5,16.3-49.4,32.1-74,48.3l-0.5,0.3l-0.5-0.4
					c-19.7-15.6-48.5-37.8-68.9-53.1c-0.8-0.1-33.4-129-33.8-129.4c0,0-0.5-1.8-0.5-1.8C459.2,161.5,529.1,162.5,596,177.6
					L596,177.6z M595.7,177.8c-49.6-9-100.8-11.7-151-6.3c-16.8,1.7-33.4,4.4-49.9,7.9l1.4-2.2c0-0.2,32.3,131.3,31.4,128.9
					c0,0,34.3,26.8,34.3,26.8c11.4,9,23.1,17.6,34.6,26.4l-1,0c23-14.8,52-36.6,72-48.2C576.6,266.5,585.9,222.5,595.7,177.8
					L595.7,177.8z"/>
				<path class="st3" d="M212.5,490.7c45.3,49.4,58.5,118.9,51.5,184.1c0,0-0.5-2.1-0.5-2.1c5.4,7.4,13.8,12.9,22.4,17.4
					c25.6,12.6,54.2,20.5,82.7,23.3c0.1-0.1,0.1,0,0.2,0.1l-3.8,5c3.6-49.6,59.7-70.6,99.2-86.9c8.7-0.6,17.7,2.9,26.4,2.9
					c6.1,0.6,15.7,0.3,19.7-0.9c0,0,6.3-0.5,6.3-0.5c9.6,5.4,18.6,11.2,27.4,17.7c24.9,19.7,56.8,44.3,54.1,79.8
					c0,0-3.5-4.6-3.5-4.6c23.4,3.6,47.8-1.3,70.4-8.1c22-7.1,44.2-15.7,63.2-29.1c0.5-0.4,0.9-1,0.8-0.7l-0.1,1.1
					c-3.2-33.4,0.9-67.2,11.1-99.1c10.3-32,29.4-61.2,55.2-82.9c0,0-1.1,1.8-1.1,1.8c8.1-51.1,3.2-104-5.5-154.8
					c-6.2-33-13.8-68.2-31-96.9c-8.8-14-24.1-21.7-38.4-29.6c-30.3-15.8-63-27.6-96.3-36.1c-137.8-37.1-281.6-11.7-393.9,62.9
					c-4,8.7-6.5,18.1-8.4,27.5c-5.8,29.4-8.4,59.3-10.5,89.2C208.7,410.7,204.9,451.7,212.5,490.7L212.5,490.7z M211.2,491.3
					c-8.1-39.4-4.6-80.3-4.6-120.4c1.3-35.2,2.4-70.8,9.9-105.4c0.7-5.1,3.3-10.4,5-15.2c112.4-88.1,268.7-110.5,405.2-72.8
					c34.2,9.2,67.5,21.6,98.9,38.4c15.8,8.9,33,18.4,42.8,34.5c36.1,66.2,45.2,185.9,32,259.7c-51.6,42.5-74.2,113-66.6,178.7
					c-0.9,4-5.3,5.6-8.1,7.9c-29.1,17.4-61.2,30-94.6,36.2c-12.2,2.1-24.9,2.9-37.6,1.3c-2.2-0.3-3.8-2.3-3.5-4.5
					c1.1-31.1-29.6-52.8-52.4-69.7c-8.6-5.8-17.5-11.6-26.5-16.5l6.3-0.5c-1,0.7-1.2,0.7-1.7,1c-16.2,5.6-34.1,1.6-50.5-0.7
					c0,0,3.3-0.3,3.3-0.3c-34.2,14.9-88,33.5-92.5,76c-0.5,9.4-15.7,4-21.5,3.5c-25.1-5.4-49.8-13.2-72.3-25.8
					c-8.9-5.5-20.3-12-24.6-22.6c0.8-8.1,1.8-16.2,2.5-24.3C264.8,591.1,250.7,536,211.2,491.3L211.2,491.3z"/>
				<g>
					<path class="st0" d="M753.3,347c-1.5,4.6-146.1,94-153,94c-6.9,0-61.1-26.8-63.5-29c-2.3-2.3-16.1-37.5-16.1-37.5h42.9
						c0,0,50.5-33.7,97.9-64.5c3-2,6.1-3.9,9.1-6c36-23.3,68.1-43.6,72-44.2c4-0.7,6.9,15.3,8.7,33.8
						C753.6,317,754.1,344.4,753.3,347z"/>
					<path class="st3" d="M520.4,374.3c11.8-0.1,33.3-2.2,42.1-1.4c50-35.5,102.6-69.5,155.6-100.7c8.4-4.7,15.6-10.3,24.9-13.5
						c2.7,0.6,3,2.6,3.8,4c7.5,25.5,7.8,52.2,9.2,78.6c0,2.5,0.5,6.7-1.8,8.5c-42.9,31.7-89.3,59.2-135.4,85.9
						c-5.8,3-11.6,6.8-17.9,8.5c-2.3,0.3-3.9-0.6-5.8-1.1c-18.8-7.3-36.9-16.8-54.5-26.6c-2-1.2-5.1-2.5-6.1-4.9
						C528.9,399.4,524.9,387.4,520.4,374.3L520.4,374.3z M521,374.7c5.1,10.6,10,22.5,15.5,33.3c1.3,3.3,3.1,3.6,6,5.1
						c17.4,8.2,36.5,17.6,54.7,24c0.6,0.1,2.7,0.9,3.1,0.7c-0.3,0.1,0.7-0.3,1.2-0.6l1.9-1c34.8-19.3,88.7-53,122.6-73.9
						c6-4,19.2-11.9,24.7-16.4c0.5-0.4-0.1,0.1,0.1,0.2c0.8-27.3,1.2-56.1-6-82.6c-0.5-1.3-1.5-2.7-2-2.7c-2.2,0.7-5.1,2.4-7.7,3.9
						c-57.5,36.1-112.5,76-170.6,111.3C550.7,376.9,536.2,374.8,521,374.7L521,374.7z"/>
					<path class="st3" d="M600.3,441.1c0,0,38,21.1,72.8,0s23.7-56.5,23.7-56.5L600.3,441.1z"/>
					<path class="st3" d="M578.4,367.6c0,0-13,15.8-13.3,16.9s25.1,43.1,25.1,43.1l59.2-18.3l-8.8,8.1l-52.2,11.7l-33.4-53l8.7-1.7
						L578.4,367.6z"/>
					<path class="st3" d="M747.7,276.3c0,0-2.5,48.4-3.7,51.1c-1.2,2.8-44.2,51.1-44.2,51.1l9.3-1.7l34.9-49.4l8-29.6l-4.5-23"/>
					<path class="st3" d="M725.9,269c0,0-15.8,32.3-16.7,36.6c-0.9,4.3-9.4,31.6-9.4,31.6l15.1-61.8L725.9,269z"/>
					<path class="st3" d="M676.9,392.6l10.6-9.6l17.7-43c0,0-15.1,49.3-16,49.6S676.9,392.6,676.9,392.6z"/>
					<polygon class="st3" points="687.3,295.9 661.9,319.8 642.8,387.6 659.9,311.5 					"/>
					<polygon class="st3" points="633.5,414.3 645.9,406.4 654.8,378.6 649.4,413.7 					"/>
					<path class="st2" d="M753.3,347c-1.5,4.6-146.1,94-153,94c-6.9,0-61.1-26.8-63.5-29c-2.3-2.3-16.1-37.5-16.1-37.5h42l27.4,53.2
						l41.3-21.2l28.5-95l1.6-1.5l9.6-9.2l-0.4,3.2l-9,74.6l25.7-12.2l26.9-88.1l21-13.4L722,337.2l22.6-13.4l6.7-30.2
						C753.6,317,754.1,344.4,753.3,347z"/>
					<path class="st10" d="M668.4,406.4c-16.4,8.4-13.9,19,0,13.2C682.3,413.8,692.2,394.3,668.4,406.4z"/>
					<path class="st3" d="M604.4,443c0,0-7.6,10.4-6.9,11.4s30.7,7.4,30.7,7.4l-36-6l-6.4-11.6l-26.1-17.5L594,441L604.4,443z"/>
					<path class="st3" d="M697.7,388.3c0,0,11.5,8.8,12.2,10.1c0.7,1.3-6.1,28.4-6.1,28.4l10.7-30.4l-4.5-17.9L697.7,388.3z"/>
					<path class="st3" d="M616.2,468.6c0,0,33.6,5.7,40.8,3.5s50.6-23.7,50.6-23.7s-48,30.4-50.6,30.4
						C654.4,478.8,616.2,468.6,616.2,468.6z"/>
					<path class="st3" d="M660.4,485.5l35.7-18.4C696,467.2,665.3,492.5,660.4,485.5z"/>
				</g>
				<g>
					<path class="st0" d="M233.5,340.6c1.5,4.6,146.1,94,153,94c6.9,0,61.1-26.8,63.5-29c2.3-2.3,16.1-37.5,16.1-37.5h-42.9
						c0,0-50.5-33.7-97.9-64.5c-3-2-6.1-3.9-9.1-6c-36-23.3-68.1-43.6-72-44.2c-4-0.7-6.9,15.3-8.7,33.8
						C233.2,310.6,232.7,338,233.5,340.6z"/>
					<path class="st3" d="M466.4,367.9c-4.4,13-8.5,25.1-14.1,37.3c-1,2.4-4.1,3.6-6.1,4.9c-17.7,9.7-35.7,19.3-54.5,26.6
						c-2,0.5-3.6,1.4-5.8,1.1c-6.3-1.8-12.1-5.6-17.9-8.5c-46.1-26.7-92.5-54.3-135.4-85.9c-2.3-1.8-1.8-6-1.8-8.5
						c1.4-26.4,1.8-53.1,9.2-78.6c0.8-1.3,1.2-3.4,3.8-4c9.4,3.2,16.5,8.8,24.9,13.5C321.6,297,374.2,331,424.3,366.5
						C433.1,365.7,454.6,367.8,466.4,367.9L466.4,367.9z M465.8,368.3c-15.2,0.1-29.7,2.1-43.6,1.4c-58-35.3-113.1-75.2-170.6-111.3
						c-2.6-1.5-5.5-3.3-7.7-3.9c-0.5,0-1.5,1.4-2,2.7c-7.2,26.5-6.9,55.3-6,82.6c0.2-0.2-0.3-0.6,0.1-0.2
						c5.5,4.5,18.7,12.3,24.7,16.4c33.9,20.9,87.8,54.6,122.6,73.9l1.9,1c0.5,0.2,1.5,0.6,1.2,0.6c0.4,0.1,2.5-0.6,3.1-0.7
						c18.1-6.4,37.2-15.7,54.7-24c2.8-1.5,4.6-1.8,6-5.1C455.8,390.8,460.7,378.9,465.8,368.3L465.8,368.3z"/>
					<path class="st3" d="M386.5,434.6c0,0-38,21.1-72.8,0S290,378.1,290,378.1L386.5,434.6z"/>
					<path class="st3" d="M408.4,361.2c0,0,13,15.8,13.3,16.9s-25.1,43.1-25.1,43.1L337.4,403l8.8,8.1l52.2,11.7l33.4-53l-8.7-1.7
						L408.4,361.2z"/>
					<path class="st3" d="M239.1,269.9c0,0,2.5,48.4,3.7,51.1c1.2,2.8,44.2,51.1,44.2,51.1l-9.3-1.7L242.8,321l-8-29.6l4.5-23"/>
					<path class="st3" d="M260.9,262.5c0,0,15.8,32.3,16.7,36.6c0.9,4.3,9.4,31.6,9.4,31.6l-15.1-61.8L260.9,262.5z"/>
					<path class="st3" d="M309.8,386.2l-10.6-9.6l-17.7-43c0,0,15.1,49.3,16,49.6C298.4,383.4,309.8,386.2,309.8,386.2z"/>
					<polygon class="st3" points="299.5,289.5 324.9,313.4 344,381.2 326.9,305.1 					"/>
					<polygon class="st3" points="353.2,407.9 340.9,400 332,372.1 337.4,407.2 					"/>
					<path class="st2" d="M233.5,340.6c1.5,4.6,146.1,94,153,94c6.9,0,61.1-26.8,63.5-29c2.3-2.3,16.1-37.5,16.1-37.5h-42
						l-27.4,53.2L355.4,400l-28.5-95l-1.6-1.5l-9.6-9.2l0.4,3.2l9,74.6l-25.7-12.2l-26.9-88.1l-21-13.4l13.2,72.4l-22.6-13.4
						l-6.7-30.2C233.2,310.6,232.7,338,233.5,340.6z"/>
					<path class="st10" d="M318.4,400c16.4,8.4,13.9,19,0,13.2C304.5,407.4,294.6,387.9,318.4,400z"/>
					<path class="st3" d="M382.4,436.6c0,0,7.6,10.4,6.9,11.4s-30.7,7.4-30.7,7.4l36-6l6.4-11.6l26.1-17.5l-34.2,14.2L382.4,436.6z"
						/>
					<path class="st3" d="M289.1,381.9c0,0-11.5,8.8-12.2,10.1c-0.7,1.3,6.1,28.4,6.1,28.4L272.4,390l4.5-17.9L289.1,381.9z"/>
					<path class="st3" d="M370.6,462.2c0,0-33.6,5.7-40.8,3.5c-7.2-2.1-50.6-23.7-50.6-23.7s48,30.4,50.6,30.4
						S370.6,462.2,370.6,462.2z"/>
					<path class="st3" d="M326.4,479.1l-35.7-18.4C290.7,460.7,321.5,486.1,326.4,479.1z"/>
				</g>
				<path class="st3" d="M358.5,516.6c0,0-37.6,24.7-41.7,54.7c14.7,0.6,83.5-29.1,86.6-27.4c3.1,1.7,61.9,51.8,74.5,53
					s46.3-3.8,46.3-3.8s65.7-36.4,69.8-36.3s75.2,44.9,75.9,40.3c0.7-4.6-23.6-51.5-20.5-50.3c3.1,1.3,38.6,58.8,33.4,59.4
					s-92.8-41.3-92.8-41.3s-61.5,36.3-69.5,36.3c-8.1,0-51.2,2.5-51.2,2.5l-70.7-51.9c0,0-103.4,48.2-99,34.4
					C304,572.6,358.5,516.6,358.5,516.6z"/>
				<path class="st3" d="M427,621.6c0,0,0.8,0.3,2.3,0.7c11.2,3.2,61.9,16.1,119.5,6.9c-25.2,8-28.4,16.1-28.4,16.1l-59.9-7.9
					l-20.2,7.9"/>
			</g>
			<path class="st3" d="M211.2,491.3c0,0-19.6-194.8,4.5-261.8c65-59.7,211.2-87.2,312.5-82.5s222,49.6,252.1,89.9
				c32.2,42.2,37.9,215,17.9,267.1c6-24.4,22.2-196-22.7-267.8C734.1,187.9,596,148.3,457.1,153s-230.3,53-251.3,76.4
				C190.9,250.2,199.3,476.3,211.2,491.3z"/>
			<path class="st3" d="M802.2,498.2c0,0-4.4,95.9-3.9,103.2c0.5,7.3,43,54.6,49.6,57.6c6.7,3,45,4.5,60.7,0.7
				c13.9-2-4.7,12.9-4.7,12.9s-60.9-3.9-65.7-8.1c-4.9-4.2-46.1-61.9-46.1-61.9s8.2-92.4,5.1-93S802.2,498.2,802.2,498.2z"/>
			<path class="st3" d="M806.1,455.8c0,0,11.5,91,17,101.3c5.5,10.3,24.9,34.6,24.9,34.6L815.8,551l-19.4-58.9L806.1,455.8z"/>
			<path class="st3" d="M775.6,535.2c0,0-17.4,57.4-16.2,71.2c1.2,13.8,46.1,63.5,55.8,68.9s109.3,16,109.3,16l-118.4-15.4
				l-54.8-69.6l10.4-61.3L775.6,535.2z"/>
			<path class="st3" d="M962.6,625.3c0,0-63.7,7-72.8,4c-9.1-3.1-49.1-22.9-49.1-22.9l55.8,32.6h58.3L962.6,625.3z"/>
			<path class="st3" d="M802.2,303.1c0,0,10,12.6,14.8,15.7c4.9,3,27.3-27.3,27.3-27.3l-39.9,57.9L802.2,303.1z"/>
			<path class="st3" d="M864.8,243.7c0,0-2.3,28.4-6,31.1c-3.6,2.7,12.6-5.8,12.6-5.8L864.8,243.7z"/>
			<path class="st3" d="M828.5,406.4c0,0,3.6,89,4.2,94.5c0.6,5.4,46.7,82.1,61.2,93.5c5.3-9.5,2.2-12.9,2.2-12.9l-3.6-5
				c0,0-50.4-65.4-56.5-72.6C829.9,496.7,828.5,406.4,828.5,406.4z"/>
			<path class="st3" d="M817.2,200.7c0,0,9.5,20.9,6.1,27.8c-3.5,7-24.9,18-24.9,18l-22.7-15.4c0,0,9.6,21.6,11.3,21.1
				c1.7-0.5,12.8-1.6,12.8-1.6l31-21.3v-20.5L817.2,200.7z"/>
			<path class="st3" d="M735.6,147.5c0,0,13.2,16.1,13.2,19.7c0,3.6-13.2,22.4-13.2,22.4s-25.3,0.6-29.6-1.2s18.6,8.5,18.6,8.5
				l14.3-4.9l18.5-32.1L735.6,147.5z"/>
			<path class="st3" d="M622.2,101.6c0,0,15.6,19.1,14.9,24.9c-0.7,5.7-3.2,21.7-7.5,24.6s-27.2,5.4-33.9,4.2
				c-6.7-1.2,25.5,7.7,25.5,7.7s11.1-7,12.7-9.8c1.6-2.9,11.5-46.3,11.5-46.3L622.2,101.6z"/>
			<path class="st3" d="M204.1,455.4c0,0,3.3,56.1,3,65.3s-17.1,47.6-17.1,47.6l26-56.4c0,0,14,6.9,20.6,15.6
				c-3-8.8-9.8-28.3-24.1-36.8C209.1,475.6,204.1,455.4,204.1,455.4z"/>
			<path class="st3" d="M55.7,618.2c0,0,29.5,2.8,43.4,0c13.9-2.8,52.4-31.6,52.4-31.6l25-51.4c0,0-23.1,56.3-24.5,56.7
				c-1.4,0.5-51.4,34.6-55.3,34.1c-3.8-0.5-41-1.4-41-1.4V618.2z"/>
			<path class="st3" d="M105.9,663c0,0,16.8,9.6,22.1,7.7c5.3-1.9,39.9-23.6,43.8-28.4c3.8-4.8,34.1-57.2,34.1-57.2
				s-33.6,63-37.4,65.9c-3.8,2.9-49.2,33.6-54.4,40.6c1.5-9.8,2.6-13.8,2.6-13.8L105.9,663z"/>
			<path class="st3" d="M251.1,561.5c0,0,1,43.8-5.7,52.5s-52.9,54.6-52.9,54.6l68.4-69.7C260.9,598.9,260.6,567.7,251.1,561.5z"/>
			<path class="st3" d="M198.1,349.6c0,0-4.2,86.9-5.7,92.5c-1.4,5.6-30.3,77.2-30.3,77.2l35.7-77.2l5.7-27.2L198.1,349.6z"/>
			<path class="st3" d="M189.4,190.2c0,0-9.5,14.1-6.6,17.4c2.9,3.2,15,15.5,15,15.5s10.1,3.6,14.7,0c4.6-3.6-2.8,13.3-2.8,13.3
				l-8,7.2c0,0-1.4-12.4-3.5-14.6c-2.1-2.3-22.2-14.3-22.2-14.3l1-16.8L189.4,190.2z"/>
			<path class="st3" d="M251.7,144.8c0,0-17,23.9-16.8,28.2c0.1,4.2,18.9,21.2,22.5,23.6c3.6,2.3-12.6,8.5-12.6,8.5l-18.1-48.3
				L251.7,144.8z"/>
			<path class="st3" d="M370.6,99.1c0,0-11.5,15.6-11.1,19.7c0.4,4.1,2.9,24.8,5.6,27.6c2.7,2.8,18,13.5,18,13.5h-6.3
				c0,0-17.3-12.2-17.3-13.5c0-1.3-3.7-33.8-3.7-33.8l2.1-11.1L370.6,99.1z"/>
			<path class="st3" d="M454.5,85.3c0,0-6.6,23.3-6.6,24.5s6.6,31.3,6.6,31.3l14.4,6.6c0,0-12.6,5.4-14.3,3.3
				c-1.8-2.1-15.6-0.7-15.6-0.7s10.2-4.2,10.2-5.4c0-1.2-8.6-58.2-8.6-58.2L454.5,85.3z"/>
			<path class="st3" d="M520.7,82.5c0,0,15.2,13.8,15.2,16.6c0,2.9-1.6,38.2-3.3,39.5s-23,7.9-23,7.9l18.5,2.4l11.1-10.3l0.4-54.8
				L520.7,82.5z"/>
			<path class="st3" d="M868.1,287.5c0,0-12.2,79.2-15.1,85.5c-2.9,6.3-5,84.5-5,84.5s10.7-79.2,10.1-81.8
				c-0.6-2.6,14.6-31.7,14.6-31.7L868.1,287.5z"/>
			<path class="st3" d="M176,214.7c0,0,8,95,6.8,101.9c-1.2,6.9-13.9,110.2-13.9,110.2s6.3-109.7,7.6-111.8
				c1.3-2.1-9.7-36.4-9.7-36.4L176,214.7z"/>
		</g>
		<path class="st11" d="M24.9,157c0,0,36.3,24.8,45.5,33.2c9.9,10.5,48.7,47.9,52.2,45.2c3.5-2.8,45.9-76,45.9-76
			s-12.9,27.3,8.4,38.4c-11.7,53.6-20.9,145.1-20.9,145.1s-30.2-31.3-90.1-53.4c-9.2-58.9-14.2-82.7-14.2-82.7S30.3,159.4,24.9,157z
			"/>
		<path class="st11" d="M860.3,156.1c0,0,26.8,25.7,31.8,65.6c5.6,39.4,87.3-61.9,115.9-64.8c-25.9,33.5-32.7,63.2-33.1,69.5
			c-0.4,6.3-3.7,58-7.2,58.6s-75.1,25.9-95,43.1c7.8-41.2-6.3-88-6.3-88l-37.8-35c0,0,37.7,0.9,42.9-13.3S860.3,156.1,860.3,156.1z"
			/>
		<path class="st11" d="M116.8,174.1c0,0,43.3-63.4,47.9-98.2c4.6-34.8,16.8-43.7,43.2-40.9s51.4,41.2,54.9,57.5
			c-17.7-18.5-39.9-38.5-70.5-29.4C180.6,69.4,148.7,157.2,116.8,174.1z"/>
		<path class="st11" d="M914.6,172.2c0,0-31.2-71.6-45.8-99.2c-14.6-27.6-33.2-42.2-57.1-32.5c-23.9,9.7-43.1,50.6-43.1,50.6
			s46.1-35.7,65.5-30.9s21.6,40.3,30.8,53.4C874,126.8,904.4,168,914.6,172.2z"/>
	</g>
	<path class="st3" d="M339.6,719c0,0-29.2,9.5-35.5,19c-6.3,9.5-29.6,91.4-29.6,91.4L299.5,726l22.2-17.1L339.6,719z"/>
	<path class="st3" d="M314.8,978.6c0,0-29-28.4-34.3-41c-5.3-12.6-9.1-78.1-9.1-78.1l5.1,101.6l30.6,18.9L314.8,978.6z"/>
	<path class="st3" d="M267.4,686.5c0,0-11.2-7.1-17.5-3.4S203.5,719,203.5,719l57.4-66.1l0,15.7L267.4,686.5z"/>
	<path class="st3" d="M263.8,698.3c0,0-27.2,35.3-27.1,41.6c0.1,6.3,7.6,110.9,7.6,110.9l-11.6-120.1L263.8,698.3z"/>
	<path class="st3" d="M387.4,691.6c-1.7,2.3-12.2,23.1-9,49.5c1.3,23.3,18.3,119.1,17.6,118.4c-0.6-0.6-30.4-146.5-30.4-146.5
		L387.4,691.6z"/>
	<path class="st3" d="M587.9,714.9c0,0,2.8,38.1,0,43.8s-12.3,92-12.3,92l26-119.6l-3.4-7.1L587.9,714.9z"/>
	<path class="st3" d="M487.9,685.9c0,0,2.3,110,3.4,115.7s-5.8,132.7-5.8,132.7l10.7-135.8L487.9,685.9z"/>
	<path class="st3" d="M452.1,683.1c0,0-30.9,59.9-30.9,70.6c0,10.7,3.3,137.3,5.7,144.9c2.4,7.6,47.7,109.8,47.7,109.8l-53.4-116.8
		l-4.4-153.1L452.1,683.1z"/>
	<path class="st3" d="M732.5,674.1c0,0,67.2,77.6,63.8,96.2c-3.4,18.6-18.4,59.1-18.4,59.1s17.7-53.7,14.1-60.2
		c-3.6-6.6-63.2-79.9-63.2-79.9L732.5,674.1z"/>
	<path class="st3" d="M47.2,719c0,0,34.8,52.1,41.4,56.6c6.7,4.5,188.8,149.5,189.2,151.9c0.4,2.1,121.8,37.7,167.5,45.7
		c6.5,1.1,11.5,1.7,14.4,1.5c22.9-1.4,366.1-110.7,388.2-128.8s127.4-145.1,127.4-145.1l6,18.2L837.9,859.5L463.2,983.4l-202.3-55.8
		L55.7,754.9L47.2,719z"/>
	<path class="st2" d="M978.4,709.9c-7.4,22.5-14.1,40.6-18.1,48.4c-10.5,20.9-84.7,87-129.1,124c-0.1,0-0.1,0.1-0.1,0.1
		c-14.3,11.8-25.4,20.7-30.5,24c-1.3,0.9-3.8,2.1-7.2,3.7c-11.7,5.3-34.6,14.1-62.8,24.3c-33.1,12-73.3,26.1-110.7,39.1
		c-62.4,21.7-116.9,40.1-116.9,40.1s-88.9-15.6-144.2-24.2h-0.1c-20.9-3.2-37-5.4-41.7-5.4c-10.1,0-57.1-33.3-94.2-60.8
		c-11.5-8.5-22-16.5-30.2-22.7c-10.3-7.9-16.9-12.9-16.9-12.9s-31.5-31.5-62-61.8c-16.4-16.4-32.7-32.5-43.4-43.2
		c-3.3-3.3-9.3-15-16.4-31.6l1.8-2.9l25.9,27.7L271.3,923l191.9,60.4l381.1-131.9L978.4,709.9z"/>
	<path class="st2" d="M203.5,719l40.8-10.1l-11.7,21.8l11.6,120.1l30.2-61.2v39.8l27.7-94.3l22.9-25.2c0,0-54.5-19-67.4-35.7
		C240.4,681,203.5,719,203.5,719z"/>
	<path class="st3" d="M654.1,724.7c0,0,36.5,59.3,37.6,66.7c1.1,7.4-12,84.9-12,84.9s18.8-92.8,17.7-93.4
		c-1.1-0.6-34.5-61.1-34.5-61.1L654.1,724.7z"/>
	<path class="st2" d="M575.6,850.7l60-81.6l44.7,33.6l-0.6,73.5l17.7-93.4l25.6-39.9c0,0,71.3,22.6,69.1,22.8
		c-2.2,0.2-60.9-76.8-60.9-76.8s-51.5,37.6-137.3,41.3C586.9,762.7,575.6,850.7,575.6,850.7z"/>
	<path class="st2" d="M380.5,709.7c0,0-0.2,23.8,3.9,30.8s21.6,42.3,21.6,42.3l10.9-44.2l35.3-55.4l-20.1,61.4l1.5,62.1l-9.8,90.4
		L403,845.8l-7.3,10.5C395.6,856.3,365.5,724.1,380.5,709.7z"/>
	<path class="st2" d="M867.5,332.4L853,376l-3.4,78.2l-21.1-47.8c0,0,2.5,82,4.2,94.5c1.7,12.5,56.5,78.3,56.5,78.3
		s-14.4-68.7-16.6-91.7C870.4,464.5,867.5,332.4,867.5,332.4z"/>
	<path class="st2" d="M171.9,268.4l10.9,45.6L169,426.8c0,0-36.7,118.3-37,117.2C131.6,543,171.9,268.4,171.9,268.4z"/>
</g>
</svg>
